<svg width="277" height="44" viewBox="0 0 277 44" fill="none" xmlns="http://www.w3.org/2000/svg">
<path d="M76.0438 30.5699H75.3708C75.1234 30.2536 74.669 29.7129 74.203 29.1953L64.4638 18.4225H64.2337V30.5699C64.0093 30.5412 63.808 30.5009 63.6067 30.5009C63.3823 30.5009 63.1752 30.5412 62.9739 30.5699V15.1498H63.854L74.5596 26.7623H74.7898V15.1498C74.9853 15.1785 75.1867 15.2188 75.411 15.2188C75.6181 15.2188 75.8195 15.1785 76.0438 15.1498V30.5699Z" fill="#1F4599" stroke="#1F4599" stroke-width="0.6227"/>
<path d="M86.0362 21.8677H89.528C90.2068 21.8677 90.8626 21.7814 91.5357 21.7584C91.5127 21.9367 91.4666 22.138 91.4666 22.3393C91.4666 22.5234 91.5127 22.7247 91.5357 22.972C90.8626 22.9547 90.2068 22.8627 89.528 22.8627H86.0362V29.4483C87.4168 29.4886 88.7572 29.3966 90.1148 29.3506C90.8108 29.3276 91.4839 29.2585 92.1915 29.1493C92.1685 29.3966 92.1167 29.5979 92.1167 29.8222C92.1167 30.0523 92.1685 30.2766 92.1915 30.5009H84.0515V15.1498H92.0592C92.0304 15.4029 91.9901 15.6042 91.9901 15.8285C91.9901 16.0585 92.0304 16.2771 92.0592 16.5014C91.3804 16.3691 90.7015 16.3001 90.0227 16.2598L87.7735 16.2138H86.0362V21.8677Z" fill="#1F4599" stroke="#1F4599" stroke-width="0.6227"/>
<path d="M98.0879 15.1498C98.433 15.1785 98.7955 15.2188 99.1521 15.2188C99.4685 15.2188 99.8079 15.1785 100.193 15.1498C100.441 15.9205 100.642 16.7315 100.866 17.5425L102.201 22.115L104.088 28.0679H104.295C105.739 23.944 108.12 17.0708 108.661 15.1498C108.868 15.1785 109.093 15.2188 109.317 15.2188C109.518 15.2188 109.72 15.1785 109.95 15.1498C110.381 16.7545 112.199 21.8964 114.23 28.0679H114.437C114.77 27.211 115.07 26.3597 115.334 25.497L117.969 17.0018L118.515 15.1498C118.763 15.1785 119.033 15.2188 119.298 15.2188C119.551 15.2188 119.793 15.1785 120.086 15.1498C119.683 16.0758 119.298 17.0478 118.958 18.0371L114.65 30.5699C114.385 30.5412 114.161 30.5009 113.919 30.5009C113.666 30.5009 113.419 30.5412 113.171 30.5699C112.901 29.6899 110.514 22.3393 109.093 17.9278H108.914L104.537 30.5699C104.266 30.5412 104.019 30.5009 103.8 30.5009C103.524 30.5009 103.277 30.5412 103.029 30.5699C102.713 29.5289 102.443 28.5626 102.132 27.5963L98.0879 15.1498Z" fill="#1F4599" stroke="#1F4599" stroke-width="0.6227"/>
<path d="M131.16 22.8627C131.16 17.9278 134.836 14.8162 139.507 14.8162C143.741 14.8162 148.044 17.1168 148.044 22.5234C148.044 27.5503 144.488 30.8402 139.461 30.8402C134.473 30.8345 131.16 27.6883 131.16 22.8627ZM144.408 17.7437C143.28 16.3288 141.526 15.5581 139.725 15.5581C135.75 15.5581 133.374 18.5547 133.374 23.133C133.374 27.7056 136.159 30.0983 139.524 30.0983C144.281 30.0983 145.984 25.1864 145.835 22.7017C145.84 20.8324 145.593 19.2564 144.408 17.7437Z" fill="#1F4599" stroke="#1F4599" stroke-width="0.6227"/>
<path d="M154.205 15.1498H158.628C161.936 15.1498 163.645 15.9435 163.645 18.2672C163.645 20.3838 162.074 21.7584 160.084 22.253C161.85 22.3623 164.214 23.1791 164.214 25.7903C164.214 27.3893 163.489 28.6949 162.183 29.5979C160.855 30.5239 158.985 30.5239 157.432 30.5009H154.205V15.1498ZM156.195 21.9367C157.472 21.9367 158.738 22.0287 159.951 21.4593C161.062 20.9417 161.689 19.9581 161.689 18.7388C161.689 16.5934 160.228 15.9895 157.858 15.9895H156.195V21.9367ZM156.195 29.6611H158.329C160.544 29.6611 162.12 28.2232 162.12 26.1699C162.12 23.5069 160.182 22.7649 157.449 22.7649H156.195V29.6611Z" fill="#1F4599" stroke="#1F4599" stroke-width="0.6227"/>
<path d="M174.811 28.5338C174.897 31.3982 173.165 33.5148 170.214 33.6068L170.03 32.9971C172.533 32.9051 172.82 30.8115 172.82 28.8272V15.144C173.142 15.1728 173.476 15.2131 173.815 15.2131C174.126 15.2131 174.448 15.1728 174.811 15.144V28.5338Z" fill="#1F4599" stroke="#1F4599" stroke-width="0.6227"/>
<path d="M185.108 21.8677H188.605C189.278 21.8677 189.928 21.7814 190.607 21.7584C190.578 21.9367 190.538 22.138 190.538 22.3393C190.538 22.5234 190.578 22.7247 190.607 22.972C189.928 22.9547 189.278 22.8627 188.605 22.8627H185.108V29.4483C186.477 29.4886 187.829 29.3966 189.18 29.3506C189.876 29.3276 190.561 29.2585 191.263 29.1493C191.234 29.3966 191.194 29.5979 191.194 29.8222C191.194 30.0523 191.234 30.2766 191.263 30.5009H183.117V15.1498H191.119C191.102 15.4029 191.056 15.6042 191.056 15.8285C191.056 16.0585 191.102 16.2771 191.119 16.5014C190.452 16.3691 189.773 16.3001 189.094 16.2598L186.839 16.2138H185.108V21.8677Z" fill="#1F4599" stroke="#1F4599" stroke-width="0.6227"/>
<path d="M210.672 29.5576C209.257 30.5009 207.405 30.8402 205.691 30.8402C200.732 30.8402 197.752 27.7056 197.752 22.7707C197.752 17.7035 201.491 14.8162 206.249 14.8162C207.9 14.8162 209.591 15.1958 211.098 15.8515C210.874 16.4151 210.741 17.0018 210.626 17.5884L210.471 17.6115C210.143 17.2031 208.481 15.6732 206.162 15.6732C202.015 15.6732 199.967 19.0264 199.967 22.8627C199.967 27.1879 202.446 29.9602 206.001 29.9602C208.435 29.9602 210.333 28.5223 210.787 28.1369L210.672 29.5576Z" fill="#1F4599" stroke="#1F4599" stroke-width="0.6227"/>
<path d="M223.805 30.6159C223.449 30.5929 223.132 30.5411 222.816 30.5411C222.482 30.5411 222.143 30.5929 221.826 30.6159V16.2368C219.543 16.2368 218.179 16.3691 216.896 16.5014C216.914 16.2771 216.954 16.0585 216.954 15.8285C216.954 15.6042 216.914 15.4029 216.896 15.1498H228.517C228.494 15.4029 228.453 15.6042 228.453 15.8285C228.453 16.0585 228.494 16.2771 228.517 16.5014C227.395 16.3691 225.813 16.2368 223.805 16.2368V30.6159Z" fill="#1F4599" stroke="#1F4599" stroke-width="0.6227"/>
<path d="M235.616 15.1498C235.932 15.1785 236.277 15.2188 236.611 15.2188C236.927 15.2188 237.244 15.1785 237.6 15.1498V30.5699C237.244 30.5412 236.927 30.5009 236.611 30.5009C236.277 30.5009 235.932 30.5412 235.616 30.5699V15.1498Z" fill="#1F4599" stroke="#1F4599" stroke-width="0.6227"/>
<path d="M255.934 19.2795L257.286 15.5121L257.447 15.1498C257.712 15.1785 257.982 15.2188 258.269 15.2188C258.517 15.2188 258.793 15.1785 259.086 15.1498C258.367 16.5244 253.386 28.0679 252.574 30.5699C252.413 30.5412 252.264 30.5009 252.126 30.5009C251.965 30.5009 251.815 30.5412 251.648 30.5699C249.077 25.2727 245.792 17.0708 244.797 15.1498C245.136 15.1785 245.516 15.2188 245.878 15.2188C246.241 15.2188 246.58 15.1785 246.983 15.1498C247.276 15.8515 247.552 16.5934 247.817 17.3412L249.33 21.2868L252.091 28.1082H252.304C252.73 27.1879 253.201 26.3079 253.564 25.3877L255.934 19.2795Z" fill="#1F4599" stroke="#1F4599" stroke-width="0.6227"/>
<path d="M267.071 21.8677H270.563C271.242 21.8677 271.898 21.7814 272.565 21.7584C272.548 21.9367 272.507 22.138 272.507 22.3393C272.507 22.5234 272.548 22.7247 272.565 22.972C271.898 22.9547 271.242 22.8627 270.563 22.8627H267.071V29.4483C268.446 29.4886 269.798 29.3966 271.15 29.3506C271.852 29.3276 272.519 29.2585 273.221 29.1493C273.203 29.3966 273.157 29.5979 273.157 29.8222C273.157 30.0523 273.203 30.2766 273.221 30.5009H265.086V15.1498H273.088C273.065 15.4029 273.019 15.6042 273.019 15.8285C273.019 16.0585 273.065 16.2771 273.088 16.5014C272.41 16.3691 271.736 16.3001 271.058 16.2598L268.808 16.2138H267.071V21.8677Z" fill="#1F4599" stroke="#1F4599" stroke-width="0.6227"/>
<path d="M30.4888 37.6387C21.7621 40.4052 12.4486 35.5853 9.68159 26.8601C6.91458 18.1406 11.7353 8.82296 20.462 6.05067C28.9011 3.37041 37.8752 7.81643 40.9586 15.9952C40.9241 15.886 40.8953 15.7824 40.8665 15.6789C37.507 5.10166 26.2146 -0.747757 15.6413 2.6112C5.06224 5.9644 -0.782417 17.2549 2.57136 27.8264C5.93089 38.3979 17.2175 44.2415 27.7966 40.8883C34.0267 38.9098 38.623 34.1762 40.6537 28.4533C38.8128 32.6865 35.229 36.1317 30.4888 37.6387Z" fill="#F3A921"/>
<path d="M31.2022 31.979C25.6164 33.7563 19.6567 30.6619 17.8849 25.0771C16.1131 19.5037 19.2022 13.5335 24.788 11.7678C30.184 10.0538 35.9308 12.8893 37.904 18.1291C37.881 18.0601 37.8637 17.9968 37.8407 17.9278C35.695 11.1581 28.464 7.41378 21.6931 9.56489C14.928 11.7103 11.1831 18.9343 13.3346 25.6982C15.486 32.4679 22.7113 36.2122 29.4764 34.0611C33.463 32.7957 36.4026 29.7646 37.7084 26.1008C36.5291 28.8099 34.2396 31.0127 31.2022 31.979Z" fill="#F3A921"/>
<path d="M24.7708 18.595C24.7708 18.595 26.1341 20.2975 26.1341 22.0287C26.1341 23.8117 24.7708 25.4567 24.7708 25.4567L48.9778 22.345L24.7708 18.595Z" fill="#1F4599"/>
</svg>
